<svg width="41" height="41" viewBox="0 0 41 41" fill="none" xmlns="http://www.w3.org/2000/svg">
<path d="M39.8931 28.1167C40.3597 28.1167 40.7264 28.52 40.7264 29.0332V30.8663C40.7264 33.9093 38.4931 36.3656 35.7264 36.3656C35.7264 33.341 33.4764 30.8663 30.7264 30.8663C27.9764 30.8663 25.7264 33.341 25.7264 36.3656H22.3931C22.3931 33.341 20.1431 30.8663 17.3931 30.8663C14.6431 30.8663 12.3931 33.341 12.3931 36.3656C9.6264 36.3656 7.39307 33.9093 7.39307 30.8663V27.2002C7.39307 26.192 8.14307 25.3671 9.05973 25.3671H24.8931C27.1931 25.3671 29.0597 23.314 29.0597 20.7843V10.7024C29.0597 9.69415 29.8097 8.86926 30.7264 8.86926H32.1264C33.3264 8.86926 34.4264 9.58417 35.0264 10.7207L36.0931 12.7737C36.2431 13.067 36.0431 13.452 35.7264 13.452C33.4264 13.452 31.5597 15.505 31.5597 18.0347V23.534C31.5597 26.0636 33.4264 28.1167 35.7264 28.1167H39.8931Z" fill="#70C45C"/>
<path d="M17.3929 40.0318C19.2339 40.0318 20.7262 38.3904 20.7262 36.3656C20.7262 34.3409 19.2339 32.6995 17.3929 32.6995C15.552 32.6995 14.0596 34.3409 14.0596 36.3656C14.0596 38.3904 15.552 40.0318 17.3929 40.0318Z" fill="#32841E"/>
<path d="M30.7264 40.0318C32.5673 40.0318 34.0597 38.3904 34.0597 36.3656C34.0597 34.3409 32.5673 32.6995 30.7264 32.6995C28.8855 32.6995 27.3931 34.3409 27.3931 36.3656C27.3931 38.3904 28.8855 40.0318 30.7264 40.0318Z" fill="#32841E"/>
<path d="M40.7262 22.8082V25.8366H35.7262C34.8096 25.8366 34.0596 24.9095 34.0596 23.7765V17.5961C34.0596 16.463 34.8096 15.5359 35.7262 15.5359H37.8762L40.2929 20.7687C40.5762 21.3867 40.7262 22.0872 40.7262 22.8082Z" fill="#32841E"/>
<path d="M25.8592 3.86926H13.5426C10.5592 3.86926 8.05924 6.0026 7.50924 8.83593H14.7926C15.4259 8.83593 15.9259 9.3526 15.9259 9.98593C15.9259 10.6193 15.4259 11.1193 14.7926 11.1193H7.39258V13.4193H11.7259C12.3592 13.4193 12.8759 13.9359 12.8759 14.5693C12.8759 15.2026 12.3592 15.7026 11.7259 15.7026H7.39258V18.0026H8.67591C9.30924 18.0026 9.82591 18.5193 9.82591 19.1526C9.82591 19.7859 9.30924 20.2859 8.67591 20.2859H7.39258V20.6693C7.39258 21.5859 8.14258 22.3359 9.05924 22.3359H24.3092C26.0092 22.3359 27.3926 20.9526 27.3926 19.2526V5.4026C27.3926 4.5526 26.7092 3.86926 25.8592 3.86926Z" fill="#70C45C"/>
<path d="M7.50941 8.83594H7.25941H5.62607C4.99274 8.83594 4.47607 9.3526 4.47607 9.98594C4.47607 10.6193 4.99274 11.1193 5.62607 11.1193H7.14274H7.39274V10.0193C7.39274 9.61927 7.44274 9.21927 7.50941 8.83594Z" fill="#70C45C"/>
<path d="M7.14274 13.4193H5.62607C4.99274 13.4193 4.47607 13.9359 4.47607 14.5693C4.47607 15.2026 4.99274 15.7026 5.62607 15.7026H7.14274H7.39274V13.4193H7.14274Z" fill="#70C45C"/>
<path d="M7.14274 18.0026H5.62607C4.99274 18.0026 4.47607 18.5193 4.47607 19.1526C4.47607 19.786 4.99274 20.286 5.62607 20.286H7.14274H7.39274V18.0026H7.14274Z" fill="#70C45C"/>
</svg>
