<svg width="79" height="29" viewBox="0 0 79 29" fill="none" xmlns="http://www.w3.org/2000/svg">
<path d="M75.1101 10.7716H62.695V8.35494H75.1101V3.52419H55.2464V15.5998H67.6615V18.0165H55.2464V22.8472H75.1101V10.7716Z" fill="black"/>
<path d="M52.7644 3.52419H47.7979V22.8447H52.7644V3.52419Z" fill="black"/>
<path d="M25.4522 3.52419V8.35494H40.3493V10.7716H25.4522V22.8472H30.4162V15.6733L37.8673 22.8472H45.3159L37.5441 15.5998H45.3159V3.52419H25.4522Z" fill="black"/>
<path d="M10.5525 15.5998H15.5061V10.7817H10.5525V15.5998ZM11.7961 11.9786H14.2781V14.3928H11.7961V11.9786Z" fill="black"/>
<path d="M8.07056 3.52419H3.72448C3.56024 3.5254 3.40302 3.58912 3.28649 3.7017C3.22851 3.75789 3.18254 3.82469 3.15122 3.89824C3.1199 3.97179 3.10385 4.05064 3.10399 4.13025V22.2411C3.10385 22.3208 3.1199 22.3996 3.15122 22.4732C3.18254 22.5467 3.22851 22.6135 3.28649 22.6697C3.40329 22.7816 3.56056 22.8444 3.72448 22.8447H15.5191V18.0266H8.07056V3.52419Z" fill="black"/>
<path d="M22.3472 3.52419H10.5525V8.35494H18.0037V15.5998H22.9572V4.13025C22.9587 3.9707 22.896 3.81689 22.7825 3.7017C22.6662 3.5904 22.5103 3.52685 22.3472 3.52419Z" fill="black"/>
<path d="M22.9703 18.0165H18.0037V28.885H22.9703V18.0165Z" fill="black"/>
<path d="M10.0337 0.808319H0.721081C0.556727 0.808987 0.3993 0.872787 0.283083 0.985826C0.166866 1.09886 0.101272 1.25199 0.100586 1.41185V10.4698H1.34158V2.60876C1.34498 2.45066 1.41177 2.30013 1.52769 2.18926C1.64362 2.0784 1.7995 2.016 1.96207 2.01537H10.0441L10.0337 0.808319Z" fill="black"/>
<path d="M77.0732 16.5051V24.3662C77.0725 24.526 77.007 24.6791 76.8907 24.7922C76.7745 24.9052 76.6171 24.969 76.4527 24.9697H68.3707V26.1666H77.6833C77.7656 26.1676 77.8472 26.1528 77.9236 26.1229C77.9999 26.0931 78.0694 26.0488 78.128 25.9927C78.1867 25.9366 78.2333 25.8697 78.2653 25.796C78.2973 25.7223 78.3139 25.6431 78.3142 25.5631V16.5051H77.0732Z" fill="black"/>
</svg>
